<svg width="100" height="100" viewBox="0 0 100 100" fill="none" xmlns="http://www.w3.org/2000/svg">
<g clip-path="url(#clip0_1_2)">
<path d="M50 100C77.6142 100 100 77.6142 100 50C100 22.3858 77.6142 0 50 0C22.3858 0 0 22.3858 0 50C0 77.6142 22.3858 100 50 100Z" fill="#222222"/>
<path d="M42.0773 69.5359V78.7131H14.0243V69.5359H23.6186V32.8272C23.0624 35.3301 22.1586 37.2767 20.9072 38.6672C19.6558 39.9882 18.3348 40.9268 16.9443 41.483C15.5538 42.0392 14.3024 42.3868 13.19 42.5258C12.0776 42.5953 11.3476 42.6301 11 42.6301V31.0543C11.4171 31.1239 12.321 31.1239 13.7114 31.0543C15.1019 30.9153 16.5967 30.4981 18.1957 29.8029C19.8643 29.1077 21.3243 27.9953 22.5758 26.4657C23.8272 24.9362 24.5224 22.781 24.6615 20H34.0473V69.5359H42.0773Z" fill="#C7EDEF"/>
<path d="M65.3282 79.756C60.6701 79.756 56.742 78.9565 53.5439 77.3574C50.3458 75.7584 47.8429 73.7074 46.0353 71.2045C44.2276 68.6321 43.0457 65.8859 42.4895 62.9659L53.0225 61.5059C53.092 61.9926 53.3353 62.7573 53.7525 63.8002C54.2391 64.7735 54.9344 65.8164 55.8382 66.9288C56.8115 67.9717 58.063 68.8755 59.5925 69.6402C61.1915 70.405 63.2077 70.7874 65.6411 70.7874C69.5344 70.7874 72.524 69.6402 74.6097 67.3459C76.6954 65.0516 77.8426 62.4792 78.0511 59.6288C78.2597 57.6126 77.9469 55.6311 77.1126 53.6844C76.2783 51.7378 74.9226 50.1387 73.0454 48.8873C71.1683 47.6358 68.8044 47.0101 65.9539 47.0101C63.312 47.0101 61.1915 47.4968 59.5925 48.4701C58.063 49.3739 56.9506 50.3125 56.2553 51.2859C55.5601 52.2592 55.1777 52.7806 55.1082 52.8502L44.1581 50.973L47.391 20H85.7683V29.1772H54.7953L52.8139 47.7401C52.8139 47.7401 53.092 47.3577 53.6482 46.593C54.2739 45.7587 55.2125 44.8201 56.4639 43.7773C57.7849 42.7344 59.4534 41.8306 61.4696 41.0658C63.5554 40.2315 66.0582 39.8144 68.9782 39.8144C73.6364 39.8144 77.4602 40.7877 80.4497 42.7344C83.4393 44.6811 85.5945 47.1839 86.9155 50.243C88.3059 53.3021 88.8621 56.5002 88.584 59.8373C88.3059 63.1745 87.2283 66.3726 85.3512 69.4317C83.474 72.4212 80.8321 74.8893 77.4254 76.836C74.0187 78.7827 69.9863 79.756 65.3282 79.756Z" fill="#C7EDEF"/>
</g>
<defs>
<clipPath id="clip0_1_2">
<rect width="100" height="100" fill="white"/>
</clipPath>
</defs>
</svg>
